<svg xmlns="http://www.w3.org/2000/svg" version="1.1" xmlns:xlink="http://www.w3.org/1999/xlink" width="128" height="128"><svg width="128" height="128" viewBox="0 0 128 128" fill="none" xmlns="http://www.w3.org/2000/svg">
<rect width="128" height="128" fill="white"></rect>
<path d="M12.8 103.602H31.5872V76.798C33.1827 77.169 39.2001 77.169 40.6701 77.169C56.7563 77.169 72.2271 69.2997 72.2271 48.5163C72.2271 24.4176 53.8104 20.48 36.6187 20.48C28.2708 20.48 19.5524 21.3417 12.8 22.5685V103.602ZM38.2141 36.7093C45.4565 36.7093 52.5794 39.0432 52.5794 48.1453C52.5794 58.8452 44.9665 60.9337 37.3537 60.9337C36.3737 60.9337 32.5672 60.6883 31.5813 60.443V37.3257C33.0572 36.9547 35.5072 36.7093 38.2082 36.7093" fill="#202020"></path>
<path d="M75.0834 52.6993H83.5567L75.0834 83.6859C74.1034 87.2525 73.1174 90.9388 73.1174 94.5055C73.1174 101.884 78.3998 104.96 84.6622 104.96C93.0101 104.96 101.483 101.639 107.13 95.9836L105.78 92.9077C102.344 94.7508 98.7825 95.6126 95.221 95.6126C91.6596 95.6126 89.9446 93.0274 89.9446 90.4481C89.9446 87.8689 90.6796 85.164 91.2951 82.8242L99.643 52.6993H113.273C114.624 50.7305 115.484 47.5349 115.114 45.201H101.483L105.045 32.293L102.714 30.9405C99.0275 31.3115 91.6656 32.664 88.1041 35.1235L85.7737 43.9743C81.7222 45.0813 78.5313 46.3081 75.3344 48.0316L75.0894 52.7053L75.0834 52.6993Z" fill="#202020"></path>
</svg><style>@media (prefers-color-scheme: light) { :root { filter: none; } }
@media (prefers-color-scheme: dark) { :root { filter: none; } }
</style></svg>