<svg xmlns="http://www.w3.org/2000/svg"><style>:root svg:not(:target){display:none}</style><svg viewBox="0 0 8 6" fill="none" id="arrow-down-icon"><path d="m4 6-4-6h8l-4 6Z" fill="#202020"></path></svg><svg viewBox="0 0 24 24" fill="none" id="arrow-icon"><path d="m2 15.5 10-10.5 1.43 1.5-10 10.5-1.43-1.5Z" fill="#202020"></path><path d="m20.57 17-10-10.5 1.43-1.5 10 10.5-1.43 1.5Z" fill="#202020"></path></svg><svg viewBox="0 0 24 24" fill="none" id="cart-icon"><path d="M8 18a3 3 0 0 0-3 3 3 3 0 0 0 3 3 3 3 0 0 0 3-3 3 3 0 0 0-3-3Zm0 4a1 1 0 0 1-1-1 1 1 0 0 1 1-1 1 1 0 0 1 1 1 1 1 0 0 1-1 1Zm10-4a3 3 0 0 0-3 3 3 3 0 0 0 3 3 3 3 0 0 0 3-3 3 3 0 0 0-3-3Zm0 4a1 1 0 0 1-1-1 1 1 0 0 1 1-1 1 1 0 0 1 1 1 1 1 0 0 1-1 1Zm-13.12-22h-3.88v2h2.12l2 15h15.86v-2h-14.1l-.13-1h14.3l1.95-10h-17.6l-.52-4Zm15.7 6-1.18 6h-12.92l-.8-6h14.9Z" fill="#202020"></path></svg><svg viewBox="0 0 24 24" fill="currentColor" id="dark-icon"><path d="M21.97 20.39v-1.39l-3.16.03a7.02 7.02 0 0 1 0-14.04h3.16v-1.89a11.98 11.98 0 0 0-8.02-3.1 12 12 0 0 0 0 24c2.97 0 5.8-1.11 8.01-3.11v-.5h.01Zm-8.01 1.61a10 10 0 0 1-.01-20 10 10 0 0 1 4.37 1.01 9.01 9.01 0 0 0-.06 18c-1.34.64-2.8.98-4.31.98v.01Z"></path></svg><svg viewBox="0 0 24 24" fill="none" id="grid-icon"><path d="M0 2c0-1.1.9-2 2-2h20a2 2 0 0 1 2 2v6a2 2 0 0 1-2 2h-20a2 2 0 0 1-2-2v-6Zm0 14c0-1.1.9-2 2-2h20a2 2 0 0 1 2 2v6a2 2 0 0 1-2 2h-20a2 2 0 0 1-2-2v-6Z" fill="#FF4B41"></path></svg><svg viewBox="0 0 24 24" fill="none" id="heart-icon"><path d="m13.3 3.84-1.31 1.33-1.31-1.34a6.22 6.22 0 0 0-4.42-1.83 6.22 6.22 0 0 0-6.26 6.24c0 1.66.65 3.23 1.83 4.4l10.17 10.36 10.17-10.36a6.2 6.2 0 0 0 0-8.82 6.3 6.3 0 0 0-8.87 0v.02Zm7.44 7.41-8.75 8.91-8.75-8.92a4.23 4.23 0 0 1 3.02-7.24c1.14 0 2.2.44 3 1.23l2.73 2.81 2.73-2.8a4.28 4.28 0 0 1 7.28 3 4.2 4.2 0 0 1-1.25 3l-.01.01Z" fill="#202020"></path></svg><svg viewBox="0 0 24 24" fill="currentColor" id="light-icon"><path d="M13 0h-2v3.06a8.9 8.9 0 0 0-4.61 1.92l-2.17-2.17-1.41 1.41 2.17 2.17a8.98 8.98 0 0 0-1.92 4.61h-3.06v2h3.06a8.9 8.9 0 0 0 1.92 4.61l-2.17 2.17 1.41 1.41 2.17-2.17a8.98 8.98 0 0 0 4.61 1.92v3.06h2v-3.06a8.9 8.9 0 0 0 4.61-1.92l2.17 2.17 1.41-1.41-2.17-2.17a8.98 8.98 0 0 0 1.92-4.61h3.06v-2h-3.06a8.9 8.9 0 0 0-1.92-4.61l2.17-2.17-1.41-1.41-2.17 2.17a8.98 8.98 0 0 0-4.61-1.92v-3.06Z"></path></svg><svg viewBox="0 0 24 24" fill="none" id="list-icon"><path fill-rule="evenodd" clip-rule="evenodd" d="M22 2h-20v2h20v-2Zm0 9h-20v2h20v-2Zm0 9h-20v2h20v-2Zm-22-18c0-1.1.9-2 2-2h20a2 2 0 0 1 2 2v2a2 2 0 0 1-2 2h-20a2 2 0 0 1-2-2v-2Zm0 9c0-1.1.9-2 2-2h20a2 2 0 0 1 2 2v2a2 2 0 0 1-2 2h-20a2 2 0 0 1-2-2v-2Zm2 7a2 2 0 0 0-2 2v2c0 1.1.9 2 2 2h20a2 2 0 0 0 2-2v-2a2 2 0 0 0-2-2h-20Z" fill="#202020"></path></svg><svg viewBox="0 0 24 24" fill="none" id="loop-icon"><path d="M16 0a8.01 8.01 0 0 0-6.32 12.9l-9.68 9.69 1.41 1.41 9.68-9.68a7.99 7.99 0 0 0 12.91-6.32c0-4.4-3.6-8-8-8Zm0 14a6 6 0 1 1 0-12 6 6 0 0 1 0 12Z" fill="#202020"></path></svg><svg viewBox="0 0 18 15" fill="none" id="tg-icon"><path d="M18 1.28c-.25 2.64-1.33 9.04-1.88 12-.23 1.25-.7 1.66-1.13 1.71-.97.09-1.7-.63-2.63-1.25-1.46-.96-2.29-1.57-3.7-2.5-1.65-1.08-.58-1.68.36-2.65.25-.25 4.5-4.14 4.59-4.49a.33.33 0 0 0-.08-.3c-.1-.08-.24-.05-.35-.03-.15.03-2.48 1.58-7.01 4.65-.67.45-1.27.69-1.8.67-.6-.02-1.72-.33-2.57-.62-1.05-.33-1.86-.51-1.8-1.1.04-.3.45-.6 1.23-.92 4.85-2.11 8.08-3.51 9.69-4.18 4.62-1.94 5.56-2.27 6.2-2.27.13 0 .44.03.64.2.17.13.22.32.24.45-.02.1.01.4 0 .63Z" fill="#F0F0F0"></path></svg><svg viewBox="0 0 24 24" fill="none" id="user-icon"><path d="M11.99 13.98a7 7 0 1 0-.01-14 7 7 0 0 0 .01 14Zm0-12a5 5 0 1 1 0 10.01 5 5 0 0 1 0-10Zm6 13h-12a5 5 0 0 0-5 5v4.01h2v-4a3 3 0 0 1 3-3h12a3 3 0 0 1 3 3v4h2v-4a5 5 0 0 0-5-5Z" fill="#202020"></path></svg><svg viewBox="0 0 22 12" fill="none" id="vk-icon"><path d="M11.98 12c-7.51 0-11.8-4.5-11.98-12h3.77c.12 5.5 2.9 7.83 5.1 8.31v-8.31h3.54v4.74c2.17-.2 4.45-2.36 5.22-4.74h3.55c-.6 2.93-3.07 5.1-4.83 5.98a9.97 9.97 0 0 1 5.65 6.02h-3.9a6.58 6.58 0 0 0-5.7-4.29v4.29h-.42Z" fill="#F0F0F0"></path></svg></svg>